<mxfile host="app.diagrams.net" modified="2022-05-28T10:25:47.576Z" agent="5.0 (Windows NT 6.1; Win64; x64) AppleWebKit/537.36 (KHTML, like Gecko) Chrome/96.0.4664.45 Safari/537.36" etag="Qp_8AsL6DhdoIklEMb8U" version="17.4.6" type="github">
  <diagram id="ZqQBysV1df1iFZkAJG1Z" name="第 1 页">
    <mxGraphModel dx="1585" dy="763" grid="1" gridSize="10" guides="1" tooltips="1" connect="1" arrows="1" fold="1" page="1" pageScale="1" pageWidth="827" pageHeight="1169" math="0" shadow="0">
      <root>
        <mxCell id="0" />
        <mxCell id="1" parent="0" />
        <mxCell id="ieQpiAviCL3HH8ADDBgJ-4" style="edgeStyle=orthogonalEdgeStyle;rounded=0;orthogonalLoop=1;jettySize=auto;html=1;entryX=0;entryY=0.5;entryDx=0;entryDy=0;" edge="1" parent="1" source="ieQpiAviCL3HH8ADDBgJ-1" target="ieQpiAviCL3HH8ADDBgJ-2">
          <mxGeometry relative="1" as="geometry" />
        </mxCell>
        <mxCell id="ieQpiAviCL3HH8ADDBgJ-1" value="加载" style="rounded=1;whiteSpace=wrap;html=1;fontStyle=1" vertex="1" parent="1">
          <mxGeometry x="180" y="130" width="120" height="60" as="geometry" />
        </mxCell>
        <mxCell id="ieQpiAviCL3HH8ADDBgJ-5" value="" style="edgeStyle=orthogonalEdgeStyle;rounded=0;orthogonalLoop=1;jettySize=auto;html=1;" edge="1" parent="1" source="ieQpiAviCL3HH8ADDBgJ-2" target="ieQpiAviCL3HH8ADDBgJ-3">
          <mxGeometry relative="1" as="geometry" />
        </mxCell>
        <mxCell id="ieQpiAviCL3HH8ADDBgJ-2" value="链接" style="rounded=1;whiteSpace=wrap;html=1;fontStyle=1" vertex="1" parent="1">
          <mxGeometry x="370" y="130" width="120" height="60" as="geometry" />
        </mxCell>
        <mxCell id="ieQpiAviCL3HH8ADDBgJ-3" value="初始化" style="rounded=1;whiteSpace=wrap;html=1;fontStyle=1" vertex="1" parent="1">
          <mxGeometry x="560" y="130" width="120" height="60" as="geometry" />
        </mxCell>
        <mxCell id="ieQpiAviCL3HH8ADDBgJ-6" style="edgeStyle=orthogonalEdgeStyle;rounded=0;orthogonalLoop=1;jettySize=auto;html=1;entryX=0;entryY=0.5;entryDx=0;entryDy=0;" edge="1" parent="1" source="ieQpiAviCL3HH8ADDBgJ-7" target="ieQpiAviCL3HH8ADDBgJ-9">
          <mxGeometry relative="1" as="geometry" />
        </mxCell>
        <mxCell id="ieQpiAviCL3HH8ADDBgJ-7" value="验证" style="rounded=1;whiteSpace=wrap;html=1;fontStyle=1" vertex="1" parent="1">
          <mxGeometry x="180" y="260" width="120" height="60" as="geometry" />
        </mxCell>
        <mxCell id="ieQpiAviCL3HH8ADDBgJ-8" value="" style="edgeStyle=orthogonalEdgeStyle;rounded=0;orthogonalLoop=1;jettySize=auto;html=1;" edge="1" parent="1" source="ieQpiAviCL3HH8ADDBgJ-9" target="ieQpiAviCL3HH8ADDBgJ-10">
          <mxGeometry relative="1" as="geometry" />
        </mxCell>
        <mxCell id="ieQpiAviCL3HH8ADDBgJ-9" value="准备" style="rounded=1;whiteSpace=wrap;html=1;fontStyle=1" vertex="1" parent="1">
          <mxGeometry x="370" y="260" width="120" height="60" as="geometry" />
        </mxCell>
        <mxCell id="ieQpiAviCL3HH8ADDBgJ-10" value="解析" style="rounded=1;whiteSpace=wrap;html=1;fontStyle=1" vertex="1" parent="1">
          <mxGeometry x="560" y="260" width="120" height="60" as="geometry" />
        </mxCell>
        <mxCell id="ieQpiAviCL3HH8ADDBgJ-11" value="" style="shape=curlyBracket;whiteSpace=wrap;html=1;rounded=1;flipH=1;direction=south;" vertex="1" parent="1">
          <mxGeometry x="240" y="190" width="380" height="70" as="geometry" />
        </mxCell>
      </root>
    </mxGraphModel>
  </diagram>
</mxfile>
